<svg width="160" height="57" viewBox="0 0 160 57" fill="none" xmlns="http://www.w3.org/2000/svg">
<path d="M26.0696 43.6897V41.709C26.0696 40.9497 25.6005 40.4546 24.7964 40.4546C24.3943 40.4546 23.9588 40.5866 23.6572 41.0158C23.4227 40.6526 23.0876 40.4546 22.5851 40.4546C22.25 40.4546 21.9149 40.5536 21.6469 40.9167V40.5206H20.9433V43.6897H21.6469V41.9401C21.6469 41.3789 21.9485 41.1148 22.4175 41.1148C22.8866 41.1148 23.1211 41.4119 23.1211 41.9401V43.6897H23.8247V41.9401C23.8247 41.3789 24.1598 41.1148 24.5954 41.1148C25.0644 41.1148 25.299 41.4119 25.299 41.9401V43.6897H26.0696ZM36.4897 40.5206H35.3505V39.5632H34.6469V40.5206H34.0103V41.1478H34.6469V42.6003C34.6469 43.3266 34.9484 43.7557 35.7526 43.7557C36.0541 43.7557 36.3892 43.6567 36.6237 43.5246L36.4227 42.9304C36.2216 43.0625 35.9871 43.0955 35.8196 43.0955C35.4845 43.0955 35.3505 42.8974 35.3505 42.5673V41.1478H36.4897V40.5206ZM42.4536 40.4546C42.0515 40.4546 41.7835 40.6526 41.616 40.9167V40.5206H40.9124V43.6897H41.616V41.9071C41.616 41.3789 41.8505 41.0818 42.2861 41.0818C42.4201 41.0818 42.5876 41.1148 42.7216 41.1478L42.9227 40.4876C42.7887 40.4546 42.5876 40.4546 42.4536 40.4546ZM33.4407 40.7847C33.1057 40.5536 32.6366 40.4546 32.134 40.4546C31.3299 40.4546 30.7938 40.8507 30.7938 41.4779C30.7938 42.0061 31.1959 42.3032 31.8995 42.4022L32.2345 42.4352C32.6031 42.5013 32.8041 42.6003 32.8041 42.7654C32.8041 42.9964 32.5361 43.1615 32.067 43.1615C31.5979 43.1615 31.2294 42.9964 30.9948 42.8314L30.6598 43.3596C31.0283 43.6237 31.5309 43.7557 32.0335 43.7557C32.9716 43.7557 33.5077 43.3266 33.5077 42.7324C33.5077 42.1712 33.0722 41.8741 32.4021 41.775L32.067 41.742C31.7655 41.709 31.5309 41.643 31.5309 41.4449C31.5309 41.2138 31.7655 41.0818 32.134 41.0818C32.5361 41.0818 32.9381 41.2468 33.1392 41.3459L33.4407 40.7847ZM52.1366 40.4546C51.7345 40.4546 51.4665 40.6526 51.299 40.9167V40.5206H50.5954V43.6897H51.299V41.9071C51.299 41.3789 51.5335 41.0818 51.9691 41.0818C52.1031 41.0818 52.2706 41.1148 52.4046 41.1478L52.6057 40.4876C52.4716 40.4546 52.2706 40.4546 52.1366 40.4546ZM43.1572 42.1051C43.1572 43.0625 43.8273 43.7557 44.866 43.7557C45.335 43.7557 45.6701 43.6567 46.0052 43.3926L45.6701 42.8314C45.4021 43.0295 45.134 43.1285 44.8325 43.1285C44.2629 43.1285 43.8608 42.7324 43.8608 42.1051C43.8608 41.5109 44.2629 41.1148 44.8325 41.0818C45.134 41.0818 45.4021 41.1808 45.6701 41.3789L46.0052 40.8177C45.6701 40.5536 45.335 40.4546 44.866 40.4546C43.8273 40.4546 43.1572 41.1478 43.1572 42.1051ZM49.6572 42.1051V40.5206H48.9536V40.9167C48.7191 40.6196 48.384 40.4546 47.9484 40.4546C47.0438 40.4546 46.3402 41.1478 46.3402 42.1051C46.3402 43.0625 47.0438 43.7557 47.9484 43.7557C48.4175 43.7557 48.7526 43.5907 48.9536 43.2935V43.6897H49.6572V42.1051ZM47.0773 42.1051C47.0773 41.5439 47.4459 41.0818 48.049 41.0818C48.6186 41.0818 49.0206 41.5109 49.0206 42.1051C49.0206 42.6663 48.6186 43.1285 48.049 43.1285C47.4459 43.0955 47.0773 42.6663 47.0773 42.1051ZM38.6675 40.4546C37.7294 40.4546 37.0593 41.1148 37.0593 42.1051C37.0593 43.0955 37.7294 43.7557 38.701 43.7557C39.1701 43.7557 39.6392 43.6237 40.0077 43.3266L39.6727 42.8314C39.4046 43.0295 39.0696 43.1615 38.7345 43.1615C38.299 43.1615 37.8634 42.9634 37.7629 42.4022H40.1418C40.1418 42.3032 40.1418 42.2372 40.1418 42.1381C40.1753 41.1148 39.5722 40.4546 38.6675 40.4546ZM38.6675 41.0488C39.1031 41.0488 39.4046 41.3129 39.4716 41.808H37.7964C37.8634 41.3789 38.1649 41.0488 38.6675 41.0488ZM56.1237 42.1051V39.2661H55.4536V40.9167C55.2191 40.6196 54.884 40.4546 54.4484 40.4546C53.5438 40.4546 52.8402 41.1478 52.8402 42.1051C52.8402 43.0625 53.5438 43.7557 54.4484 43.7557C54.9175 43.7557 55.2526 43.5907 55.4536 43.2935V43.6897H56.1572V42.1051H56.1237ZM53.5438 42.1051C53.5438 41.5439 53.9124 41.0818 54.5155 41.0818C55.085 41.0818 55.4871 41.5109 55.4871 42.1051C55.4871 42.6663 55.085 43.1285 54.5155 43.1285C53.9124 43.0955 53.5438 42.6663 53.5438 42.1051ZM30.0232 42.1051V40.5206H29.3196V40.9167C29.085 40.6196 28.75 40.4546 28.3144 40.4546C27.4098 40.4546 26.7062 41.1478 26.7062 42.1051C26.7062 43.0625 27.4098 43.7557 28.3144 43.7557C28.7835 43.7557 29.1186 43.5907 29.3196 43.2935V43.6897H30.0232V42.1051ZM27.4098 42.1051C27.4098 41.5439 27.7783 41.0818 28.3814 41.0818C28.951 41.0818 29.3531 41.5109 29.3531 42.1051C29.3531 42.6663 28.951 43.1285 28.3814 43.1285C27.7783 43.0955 27.4098 42.6663 27.4098 42.1051ZM57.2964 43.2275C57.3299 43.2275 57.3969 43.2275 57.4304 43.2605C57.4639 43.2605 57.4974 43.2935 57.5309 43.3266C57.5644 43.3596 57.5979 43.3926 57.5979 43.4256C57.5979 43.4586 57.6314 43.4916 57.6314 43.5576C57.6314 43.5907 57.6314 43.6567 57.5979 43.6897C57.5644 43.7227 57.5644 43.7557 57.5309 43.7887C57.4974 43.8217 57.4639 43.8547 57.4304 43.8547C57.3969 43.8878 57.3634 43.8878 57.2964 43.8878C57.2629 43.8878 57.1959 43.8878 57.1624 43.8547C57.1289 43.8217 57.0954 43.8217 57.0619 43.7887C57.0283 43.7557 56.9948 43.7227 56.9948 43.6897C56.9613 43.6567 56.9613 43.6237 56.9613 43.5576C56.9613 43.5246 56.9613 43.4586 56.9948 43.4256C57.0283 43.3926 57.0283 43.3596 57.0619 43.3266C57.0954 43.2935 57.1289 43.2605 57.1624 43.2605C57.1959 43.2275 57.2629 43.2275 57.2964 43.2275ZM57.2964 43.7887C57.3299 43.7887 57.3634 43.7887 57.3969 43.7557C57.4304 43.7557 57.4639 43.7227 57.4639 43.6897C57.4974 43.6567 57.4974 43.6567 57.5309 43.6237C57.5309 43.5907 57.5644 43.5576 57.5644 43.5246C57.5644 43.4916 57.5644 43.4586 57.5309 43.4256C57.5309 43.3926 57.4974 43.3596 57.4639 43.3596C57.4304 43.3266 57.4304 43.3266 57.3969 43.2935C57.3634 43.2935 57.3299 43.2605 57.2964 43.2605C57.2629 43.2605 57.2294 43.2605 57.1959 43.2935C57.1624 43.2935 57.1289 43.3266 57.1289 43.3596C57.0954 43.3926 57.0954 43.3926 57.0619 43.4256C57.0619 43.4586 57.0283 43.4916 57.0283 43.5246C57.0283 43.5576 57.0283 43.5907 57.0619 43.6237C57.0619 43.6567 57.0954 43.6897 57.1289 43.6897C57.1624 43.7227 57.1624 43.7227 57.1959 43.7557C57.2294 43.7557 57.2629 43.7887 57.2964 43.7887ZM57.3299 43.3926C57.3634 43.3926 57.3969 43.3926 57.4304 43.4256C57.4639 43.4586 57.4639 43.4586 57.4639 43.4916C57.4639 43.5246 57.4639 43.5246 57.4304 43.5576C57.4304 43.5576 57.3969 43.5907 57.3634 43.5907L57.4639 43.6897H57.3969L57.2964 43.5907H57.2629V43.6897H57.1959V43.3926H57.3299ZM57.2294 43.4256V43.4916H57.2964H57.3299C57.3299 43.4916 57.3299 43.4916 57.3299 43.4586V43.4256H57.2964H57.2294ZM56.8608 33.192V32.7959H57.0283V32.7299H56.6263V32.7959H56.7938V33.192H56.8608ZM57.6314 33.192V32.7299H57.4974L57.3634 33.06L57.2294 32.7299H57.1289V33.192H57.2294V32.8289L57.3634 33.126H57.4639L57.5979 32.8289V33.192H57.6314ZM37.4278 35.4698C37.5283 35.5358 37.6289 35.6349 37.7294 35.7009C35.8196 36.9553 33.5077 37.6816 31.0619 37.6816C24.3943 37.6816 19 32.3667 19 25.7974C19 19.2281 24.3943 13.9133 31.0619 13.9133C33.5412 13.9133 35.8196 14.6395 37.7294 15.894C37.6289 15.96 37.5283 16.059 37.4278 16.125C34.5799 18.5679 32.9716 22.0671 32.9716 25.7974C32.9716 29.5277 34.5799 33.027 37.4278 35.4698ZM45.9381 13.9463C43.4588 13.9463 41.1804 14.6725 39.2706 15.927C39.3711 15.993 39.4716 16.092 39.5722 16.1581C42.4201 18.6009 44.0283 22.1001 44.0283 25.8304C44.0283 29.5277 42.3866 33.06 39.5722 35.5028C39.4716 35.5688 39.3711 35.6679 39.2706 35.7339C41.1804 36.9883 43.4923 37.7146 45.9381 37.7146C52.6057 37.7146 58 32.3997 58 25.8304C58 19.2611 52.6057 13.9463 45.9381 13.9463ZM38.5 16.4882C38.3325 16.6202 38.1985 16.7193 38.0309 16.8513C35.4845 19.0301 33.8763 22.2322 33.8763 25.8304C33.8763 29.3957 35.4845 32.6308 38.0309 34.8096C38.1649 34.9416 38.3325 35.0737 38.5 35.1727C38.6675 35.0407 38.8015 34.9416 38.9691 34.8096C41.5155 32.6308 43.1237 29.4287 43.1237 25.8304C43.1237 22.2652 41.5155 19.0301 38.9691 16.8513C38.8015 16.7193 38.6675 16.5872 38.5 16.4882Z" fill="white"/>
<path d="M137.19 14.3674C138.796 22.0848 140.4 29.7877 142 37.4762C141.988 37.5009 141.984 37.5071 141.979 37.5113C141.975 37.5154 141.969 37.5216 141.963 37.5216C141.916 37.5257 141.868 37.5319 141.821 37.5319C140.061 37.5319 138.3 37.5319 136.523 37.5319C136.505 37.4659 136.484 37.4101 136.472 37.3524C136.256 36.3248 136.042 35.2951 135.826 34.2675C135.785 34.0673 135.783 34.0673 135.571 34.0673C133.153 34.0673 130.732 34.0673 128.313 34.0694C128.246 34.0694 128.178 34.0694 128.091 34.0694C127.674 35.2249 127.26 36.3722 126.845 37.5236C124.76 37.5236 122.689 37.5236 120.595 37.5236C120.634 37.4246 120.665 37.3421 120.698 37.2616C123.289 31.0567 125.878 24.854 128.47 18.6491C128.836 17.7742 129.194 16.8972 129.568 16.0265C129.928 15.1908 130.549 14.6481 131.435 14.4314C131.633 14.3819 131.84 14.3592 132.044 14.3592C133.702 14.353 135.361 14.3571 137.021 14.3571C137.068 14.3551 137.116 14.3633 137.19 14.3674ZM129.846 29.3234C131.485 29.3234 133.124 29.3234 134.763 29.3234C134.771 29.1233 133.035 20.7993 132.959 20.6672C132.854 20.8385 129.86 29.148 129.846 29.3234Z" fill="white"/>
<path d="M86.4085 37.5379C84.2964 37.5379 82.2048 37.5379 80.0989 37.5379C80.0783 37.476 80.0536 37.4141 80.0372 37.3501C78.4721 31.2691 76.9091 25.1902 75.342 19.1112C75.2762 18.8512 75.196 18.5953 75.1137 18.3415C74.9369 17.7844 74.5811 17.3738 74.0772 17.0849C73.5589 16.7877 73.014 16.5443 72.4587 16.3276C71.0766 15.787 69.6535 15.3867 68.2118 15.0544C68.146 15.04 68.0823 15.0214 68 14.9987C68.0452 14.78 68.0884 14.5737 68.1337 14.3529C68.2098 14.3467 68.2756 14.3384 68.3414 14.3384C71.6463 14.3384 74.9492 14.3467 78.2541 14.3384C79.6999 14.3343 80.794 15.3 81.0593 16.6701C81.3411 18.1207 81.6084 19.5734 81.8799 21.024C82.1884 22.6645 82.4948 24.3049 82.8012 25.9475C83.0439 27.2371 83.2845 28.5268 83.5272 29.8164C83.5416 29.8969 83.5622 29.9753 83.6115 30.0661C83.6403 30.0021 83.6732 29.9382 83.7 29.8701C84.6316 27.5054 85.5653 25.1406 86.4969 22.778C87.5787 20.0377 88.6584 17.2954 89.7401 14.5551C89.8245 14.3384 89.7854 14.3467 90.0486 14.3467C91.9818 14.3467 93.915 14.3467 95.8482 14.3487C95.9161 14.3487 95.9839 14.3487 96.0909 14.3487C92.8559 22.0908 89.6353 29.8082 86.4085 37.5379Z" fill="white"/>
<path d="M103.818 36.6793C104.182 34.9728 104.537 33.3014 104.899 31.6052C104.99 31.6444 105.062 31.6754 105.134 31.7084C105.934 32.086 106.748 32.4285 107.604 32.6597C108.852 32.996 110.125 33.1116 111.413 33.0455C112.023 33.0146 112.62 32.8846 113.187 32.639C113.523 32.4925 113.833 32.3068 114.092 32.0427C114.773 31.3555 114.818 30.3506 114.179 29.6243C113.971 29.3891 113.724 29.1848 113.471 28.9991C112.906 28.5822 112.28 28.2645 111.653 27.957C110.841 27.5588 110.043 27.1296 109.298 26.6096C108.665 26.168 108.081 25.6707 107.583 25.0764C106.987 24.3645 106.565 23.5639 106.382 22.6456C106.257 22.0122 106.257 21.3745 106.343 20.7369C106.643 18.5146 107.836 16.8783 109.675 15.6773C110.779 14.9551 111.997 14.5073 113.28 14.2329C114.662 13.9357 116.063 13.8553 117.471 13.9523C118.971 14.0554 120.422 14.3856 121.835 14.8953C121.872 14.9097 121.909 14.9283 121.965 14.953C121.619 16.5729 121.276 18.1886 120.926 19.8249C120.856 19.8001 120.801 19.7836 120.747 19.7589C119.725 19.309 118.662 19.0016 117.556 18.8509C116.649 18.7271 115.74 18.6941 114.831 18.8385C114.353 18.9149 113.897 19.0531 113.477 19.3008C113.165 19.4844 112.897 19.7155 112.708 20.0292C112.389 20.5554 112.412 21.1166 112.772 21.6139C112.955 21.8677 113.177 22.0844 113.436 22.2536C113.837 22.5177 114.24 22.7777 114.658 23.0129C115.32 23.3864 115.999 23.731 116.665 24.0983C117.362 24.4842 118.031 24.9134 118.646 25.4272C119.355 26.0194 119.949 26.7024 120.35 27.5443C120.673 28.2253 120.842 28.9433 120.863 29.6945C120.908 31.2854 120.529 32.7608 119.614 34.0773C118.899 35.109 117.957 35.8828 116.86 36.4729C115.82 37.0342 114.707 37.3912 113.551 37.614C112.579 37.8018 111.598 37.8988 110.608 37.8926C108.55 37.8782 106.524 37.614 104.562 36.9579C104.317 36.8815 104.079 36.7804 103.818 36.6793Z" fill="white"/>
<path d="M104.638 14.3571C102.989 22.1012 101.345 29.8165 99.7001 37.5338C97.7052 37.5338 95.7329 37.5338 93.7298 37.5338C95.3792 29.802 97.0265 22.0827 98.6738 14.3571C100.663 14.3571 102.633 14.3571 104.638 14.3571Z" fill="white"/>
</svg>
